# xmcd
#
# Track frame offsets:
#	150
#	21122
#	39644
#	58376
#	77880
#	98715
#	115714
#	133521
#	154843
#	166850
#	184902
#	209782
#	231556
#	251376
#	287378
#	306427
#
# Disc length: 4510
#
# Revision: 2
# Processed by: cddbd v1.5.1PL0 Copyright (c) Steve Scherf et al.
# Submitted via: CDex 1.30
# Normalized: r1:TDELIM( - )
#
DISCID=e3119c10
DTITLE=Message In A Bottle - Music from and Inspired by the Motion Picture
DYEAR=2001
DGENRE=Blues
TTITLE0=Edwin McCain - I could not ask for more
TTITLE1=Sinead Lohan - No Mermaid
TTITLE2=Faith Hill - Let Me Let Go
TTITLE3=Beth Nielsen Chapman - I Will Know Your Love
TTITLE4=Hootie and the Blowfish - Only Lonely
TTITLE5=Yve.n.Adam - Don't
TTITLE6=Sheryl Crow - Carolina
TTITLE7=Sarah McLachlan - I Love You
TTITLE8=Marc Cohn - Fallen Angels
TTITLE9=Nine Sky Wonder - Somewhere In the Middle
TTITLE10=Clannad - What Will I Do
TTITLE11=Anna Nordell - I'll Still Love You Then
TTITLE12=Laura Pausini - One More Time
TTITLE13=Gabriel Yared - Message In A Bottle
TTITLE14=Gabriel Yared - Theresa and Garret
TTITLE15=Gabriel Yared - Dear Catherine
EXTD=\nYEAR: 2001  ID3G:   0
EXTT0=
EXTT1=
EXTT2=
EXTT3=
EXTT4=
EXTT5=
EXTT6=
EXTT7=
EXTT8=
EXTT9=
EXTT10=
EXTT11=
EXTT12=
EXTT13=
EXTT14=
EXTT15=
PLAYORDER=
